<svg width="50" height="50" viewBox="0 0 50 50" fill="none" xmlns="http://www.w3.org/2000/svg">
<path d="M27.6433 7.64334C28.2684 7.01844 29.1161 6.66739 30 6.66739C30.8839 6.66739 31.7316 7.01844 32.3567 7.64334L47.3567 22.6433C47.9816 23.2684 48.3326 24.1161 48.3326 25C48.3326 25.8839 47.9816 26.7316 47.3567 27.3567L32.3567 42.3567C31.728 42.9639 30.886 43.2999 30.012 43.2923C29.138 43.2847 28.302 42.9341 27.6839 42.3161C27.0659 41.698 26.7153 40.862 26.7077 39.988C26.7001 39.114 27.0361 38.272 27.6433 37.6433L36.6667 28.3333H4.99999C4.11593 28.3333 3.26809 27.9822 2.64297 27.357C2.01785 26.7319 1.66666 25.8841 1.66666 25C1.66666 24.116 2.01785 23.2681 2.64297 22.643C3.26809 22.0179 4.11593 21.6667 4.99999 21.6667H36.6667L27.6433 12.3567C27.0184 11.7316 26.6674 10.8839 26.6674 10C26.6674 9.11613 27.0184 8.26844 27.6433 7.64334Z" fill="white"/>
</svg>
