<svg width="53" height="43" viewBox="0 0 53 43" fill="none" xmlns="http://www.w3.org/2000/svg">
<path d="M33.125 5.375C33.125 3.94946 32.427 2.58231 31.1846 1.5743C29.9422 0.566293 28.2571 0 26.5 0C24.7429 0 23.0578 0.566293 21.8154 1.5743C20.573 2.58231 19.875 3.94946 19.875 5.375C19.875 6.80054 20.573 8.16769 21.8154 9.1757C23.0578 10.1837 24.7429 10.75 26.5 10.75C28.2571 10.75 29.9422 10.1837 31.1846 9.1757C32.427 8.16769 33.125 6.80054 33.125 5.375ZM23.1875 13.4375C19.5334 13.4375 16.5625 15.8479 16.5625 18.8125V22.8438C16.5625 24.3303 18.0428 25.5312 19.875 25.5312H20.0613L21.2104 33.8877C21.3967 35.2482 22.8148 36.2812 24.5021 36.2812H28.5082C30.1955 36.2812 31.6137 35.2482 31.8 33.8877L32.9387 25.5312H33.125C34.9572 25.5312 36.4375 24.3303 36.4375 22.8438V18.8125C36.4375 15.8479 33.4666 13.4375 29.8125 13.4375H23.1875ZM13.6951 33.1066C15.0408 32.9051 15.9414 31.8553 15.693 30.7635C15.4445 29.6717 14.1506 28.941 12.8049 29.1426C9.45098 29.6381 6.50078 30.3352 4.3166 31.2254C3.22969 31.6705 2.21523 32.208 1.43887 32.8715C0.6625 33.5518 0 34.4756 0 35.6094C0 37.4066 1.60449 38.6412 3.0123 39.3887C4.53398 40.1949 6.56289 40.8416 8.85059 41.3539C13.4777 42.3869 19.7094 43 26.5 43C33.2906 43 39.5223 42.3869 44.1391 41.3539C46.4268 40.8416 48.466 40.1949 49.9773 39.3887C51.3955 38.6412 52.9896 37.4066 52.9896 35.6094C52.9896 34.4756 52.3271 33.5518 51.5404 32.8715C50.7641 32.208 49.7496 31.6705 48.6627 31.2254C46.4889 30.3352 43.5387 29.6381 40.1744 29.1426C38.8287 28.941 37.5348 29.6717 37.2863 30.7635C37.0379 31.8553 37.9385 32.9051 39.2842 33.1066C42.4104 33.5686 44.843 34.1816 46.4268 34.8283C46.758 34.9627 47.0271 35.0887 47.2445 35.2062C47.6172 35.4078 47.6172 35.8109 47.2445 36.0125C46.3336 36.4912 44.8533 37.0035 42.7934 37.4654C38.7459 38.3809 32.9697 38.9688 26.5 38.9688C20.0303 38.9688 14.2541 38.3809 10.1756 37.4654C8.11563 37.0035 6.63535 36.4912 5.72441 36.0125C5.35176 35.8109 5.35176 35.4078 5.72441 35.2062C5.9418 35.0887 6.22129 34.9627 6.54219 34.8283C8.12598 34.1816 10.5586 33.577 13.6848 33.1066H13.6951Z" fill="white"/>
</svg>
