<svg width="52" height="41" viewBox="0 0 52 41" fill="none" xmlns="http://www.w3.org/2000/svg">
<path d="M45.5 21.7812V28.1875H6.5V7.6875H22.75V5.125H6.5C5.63805 5.125 4.8114 5.39498 4.2019 5.87554C3.59241 6.3561 3.25 7.00788 3.25 7.6875V28.1875C3.25 28.8671 3.59241 29.5189 4.2019 29.9995C4.8114 30.48 5.63805 30.75 6.5 30.75H19.5V35.875H13V38.4375H39V35.875H32.5V30.75H45.5C46.362 30.75 47.1886 30.48 47.7981 29.9995C48.4076 29.5189 48.75 28.8671 48.75 28.1875V21.7812H45.5ZM29.25 35.875H22.75V30.75H29.25V35.875Z" fill="white"/>
<path d="M48.75 12.8125V10.25H45.3359C45.1263 9.44796 44.7224 8.68535 44.1464 8.00397L46.5676 6.09491L44.2699 4.28322L41.8486 6.19228C40.9844 5.73809 40.0172 5.41965 39 5.25441V2.5625H35.75V5.25441C34.7328 5.41965 33.7656 5.73809 32.9014 6.19228L30.4801 4.28322L28.1824 6.09491L30.6036 8.00397C30.0276 8.68535 29.6237 9.44796 29.4141 10.25H26V12.8125H29.4141C29.6237 13.6145 30.0276 14.3772 30.6036 15.0585L28.1824 16.9676L30.4801 18.7793L32.9014 16.8702C33.7656 17.3244 34.7328 17.6429 35.75 17.8081V20.5H39V17.8081C40.0172 17.6429 40.9844 17.3244 41.8486 16.8702L44.2699 18.7793L46.5676 16.9676L44.1464 15.0585C44.7224 14.3772 45.1263 13.6145 45.3359 12.8125H48.75ZM37.375 15.375C36.4108 15.375 35.4683 15.1496 34.6666 14.7272C33.8649 14.3049 33.2401 13.7045 32.8711 13.0022C32.5021 12.2998 32.4056 11.527 32.5937 10.7814C32.7818 10.0358 33.2461 9.35087 33.9279 8.81331C34.6096 8.27575 35.4783 7.90967 36.4239 7.76136C37.3696 7.61304 38.3498 7.68916 39.2406 7.98009C40.1314 8.27101 40.8927 8.76368 41.4284 9.39578C41.9641 10.0279 42.25 10.771 42.25 11.5312C42.2487 12.5504 41.7347 13.5274 40.8207 14.2481C39.9068 14.9687 38.6675 15.374 37.375 15.375Z" fill="white"/>
</svg>
