<svg width="62" height="51" viewBox="0 0 62 51" fill="none" xmlns="http://www.w3.org/2000/svg">
<path d="M36.1949 2.42151C34.3906 2.45139 33.0949 2.74026 32.2352 3.25823L20.4527 8.44788L13.9016 15.7781C12.5211 17.5313 13.502 20.918 17.8129 18.7465L22.5356 13.6266C28.5297 9.37424 40.7602 11.3256 34.9598 19.8621C32.1141 24.8027 33.4461 27.2133 37.1152 28.2293L38.7863 23.6074C41.6805 18.2484 47.0813 17.2822 46.8633 12.9592L59.8445 13.7262L59.7235 2.56096L36.1949 2.42151ZM29.6438 12.7201C27.5367 12.6902 25.466 13.4074 23.9645 14.4434L19.2297 19.5633C20.5254 20.41 21.8332 19.9518 23.1289 18.9258C24.6547 19.5633 25.8414 18.5772 26.8102 16.6049C27.2098 15.2602 27.8031 14.3139 29.6438 12.7201ZM20.0047 22.2826C19.9563 22.2826 19.8957 22.2826 19.8473 22.2926C19.4477 22.3623 18.9754 22.7109 18.6606 23.5078C18.3336 24.3047 18.261 25.4402 18.5516 26.6555C18.8422 27.8607 19.4477 28.8867 20.1258 29.5242C20.7797 30.1518 21.3852 30.3311 21.7848 30.2613C22.1965 30.2016 22.6567 29.843 22.9715 29.0561C23.2985 28.2592 23.3832 27.1137 23.0926 25.9084C22.7899 24.6932 22.1844 23.6672 21.5184 23.0397C20.9371 22.4818 20.4043 22.2826 20.0047 22.2826ZM30.007 32.9209C29.0504 32.9309 27.8516 33.1799 26.677 33.6481C25.3328 34.1959 24.2793 34.9529 23.7102 35.6502C23.141 36.3375 23.0926 36.8555 23.2742 37.1643C23.4559 37.4631 23.9887 37.752 25.0059 37.7918C26.0231 37.8416 27.3914 37.6125 28.7356 37.0647C30.0797 36.5168 31.1332 35.7697 31.7024 35.0725C32.2715 34.3852 32.3199 33.8572 32.1383 33.5584C31.9567 33.2496 31.4238 32.9707 30.4067 32.9309C30.2735 32.9209 30.1524 32.9209 30.007 32.9209ZM18.1883 42.4436C17.6192 42.4535 17.0985 42.5232 16.6383 42.6328C15.609 42.8818 15.0156 43.3301 14.8219 43.858C14.616 44.3959 14.8219 45.0334 15.5121 45.7207C16.2145 46.3981 17.3891 47.0455 18.8422 47.4041C20.2832 47.7627 21.6879 47.7527 22.7293 47.4938C23.7707 47.2447 24.3641 46.7965 24.5578 46.2686C24.7516 45.7307 24.5578 45.0932 23.8555 44.4059C23.1652 43.7285 21.9906 43.0811 20.5375 42.7225C19.7141 42.5232 18.9149 42.4336 18.1883 42.4436Z" fill="#F5F5F5"/>
</svg>
